inDegrees=yes
name=IK-live
DataType=double
version=3
OpenSimVersion=4.1
endheader
time	pelvis_tilt	pelvis_list	pelvis_rotation	pelvis_tx	pelvis_ty	pelvis_tz	hip_flexion_r	hip_adduction_r	hip_rotation_r	knee_angle_r	ankle_angle_r	subtalar_angle_r	mtp_angle_r	hip_flexion_l	hip_adduction_l	hip_rotation_l	knee_angle_l	ankle_angle_l	subtalar_angle_l	mtp_angle_l	lumbar_extension	lumbar_bending	lumbar_rotation	neck_flex	neck_latbend	neck_rot	arm_flex_r	arm_add_r	arm_rot_r	elbow_flex_r	pro_sup_r	wrist_flex_r	wrist_dev_r	arm_flex_l	arm_add_l	arm_rot_l	elbow_flex_l	pro_sup_l	wrist_flex_l	wrist_dev_l
0	-12.42765362432022	8.75959875114164	-208.9333495091692	0.2341366603171506	0.04326292228651554	-1.326684523481465	-22.57117169827992	-1.591976316804377	-3.241458145969817	5.899560354604904	2.451982624139334	1.987972377786656	0	-24.74788768789517	-3.395140484746916	-11.58000132048591	9.793848132074926	-0.4439473045988533	4.250290820099795	0	-21.37711699760957	1.659277491615732	3.206407148933037	0	0	0	0.780214682254703	-15.17650249121971	33.31138317771994	7.00794270876052	24.87411124717978	0	0.01237452478502966	5.871191349529583	-13.22979245135624	43.89886686807741	6.822597929474449	33.48008869812274	0	0.01237452478502966
13.7999177	7.619484434221629	18.15258131121946	64.883541844386	0.2341366603171506	0.04326292228651554	-1.326684523481465	-22.57117169827992	-1.591976316804377	-3.241458145969817	5.899560354604904	2.451982624139334	1.987972377786656	0	-24.74788768789517	-3.395140484746916	-11.58000132048591	9.793848132074926	-0.4439473045988533	4.250290820099795	0	-21.37711699760957	1.659277491615732	3.206407148933037	0	0	0	0.78208905096298	-15.17649428865728	33.30894924879163	7.041192325681751	24.88037374315739	0	0.01523100339613344	5.872897586474447	-13.22987474077616	43.89524018083734	6.856770632419741	33.48316745541923	0	0.01523100339613344
17.0748885	-19.57910070292893	5.852730236391384	-203.1522670655954	0.2341366603171506	0.04326292228651554	-1.326684523481465	-22.57117169827992	-1.591976316804377	-3.241458145969817	5.899560354604904	2.451982624139334	1.987972377786656	0	-24.74788768789517	-3.395140484746916	-11.58000132048591	9.793848132074926	-0.4439473045988533	4.250290820099795	0	-21.37711699760957	1.659277491615732	3.206407148933037	0	0	0	0.7823173746074918	-15.17649329157602	33.30865440905421	7.044894587442889	24.8811198490417	0	0.01556878395899455	5.873105482092464	-13.22988474362766	43.89480165844751	6.860563897639554	33.48353601017456	0	0.01556878395899455
27.8496381	22.46913792625613	9.141985088702613	41.8317550091176	0.2341366603171506	0.04326292228651554	-1.326684523481465	-22.57117169827992	-1.591976316804377	-3.241458145969817	5.899560354604904	2.451982624139334	1.987972377786656	0	-24.74788768789517	-3.395140484746916	-11.58000132048591	9.793848132074926	-0.4439473045988533	4.250290820099795	0	-21.37711699760957	1.659277491615732	3.206407148933037	0	0	0	0.7847200895218642	-15.17648277249064	33.30553169705708	7.087077580115157	24.889161906214	0	0.01923825105019899	5.875292573693174	-13.22999027281795	43.89014792759771	6.903882327841462	33.48748990020214	0	0.01923825105019899
32.2991986	5.873195498008602	7.48319237276023	-251.1742270777945	0.2341366603171506	0.04326292228651554	-1.326684523481465	-22.57117169827992	-1.591976316804377	-3.241458145969817	5.899560354604904	2.451982624139334	1.987972377786656	0	-24.74788768789517	-3.395140484746916	-11.58000132048591	9.793848132074926	-0.4439473045988533	4.250290820099795	0	-21.37711699760957	1.659277491615732	3.206407148933037	0	0	0	0.772992195096465	-15.17653408580938	33.32075266134564	6.881126814616075	24.85006469691692	0	0.001418462528946512	5.864616421904897	-13.22947548952271	43.91282381170429	6.692292823822005	33.46825920589863	0	0.001418462528946512
32.4500618	6.271084218602335	8.106510282899174	-253.8766549712128	0.2341366603171506	0.04326292228651554	-1.326684523481465	-22.57117169827992	-1.591976316804377	-3.241458145969817	5.899560354604904	2.451982624139334	1.987972377786656	0	-24.74788768789517	-3.395140484746916	-11.58000132048591	9.793848132074926	-0.4439473045988533	4.250290820099795	0	-21.37711699760957	1.659277491615732	3.206407148933037	0	0	0	0.7727255392396986	-15.17653525542853	33.32110093595672	6.876069090736593	24.84915505284657	0	0.001000909863085761	5.86437375241068	-13.22946375568292	43.91334367155967	6.6870847687377	33.46781377922516	0	0.001000909863085761
32.6249233	13.62550229813541	10.71554259977082	87.72929898580853	0.2341366603171506	0.04326292228651554	-1.326684523481465	-22.57117169827992	-1.591976316804377	-3.241458145969817	5.899560354604904	2.451982624139334	1.987972377786656	0	-24.74788768789517	-3.395140484746916	-11.58000132048591	9.793848132074926	-0.4439473045988533	4.250290820099795	0	-21.37711699760957	1.659277491615732	3.206407148933037	0	0	0	0.7852066726291912	-15.17648064082764	33.30489853046988	7.095357808252564	24.89079249295553	0	0.019982151946012	5.875735458584244	-13.2300116580222	43.88920421703805	6.91236777342178	33.48829212024302	0	0.019982151946012
32.7998361	20.08716144367644	7.019283834311667	69.2903360392839	0.2341366603171506	0.04326292228651554	-1.326684523481465	-22.57117169827992	-1.591976316804377	-3.241458145969817	5.899560354604904	2.451982624139334	1.987972377786656	0	-24.74788768789517	-3.395140484746916	-11.58000132048591	9.793848132074926	-0.4439473045988533	4.250290820099795	0	-21.37711699760957	1.659277491615732	3.206407148933037	0	0	0	0.7859318009830494	-15.17647746520904	33.30395551238456	7.107906188977084	24.89322228398605	0	0.02109109184022163	5.876395493089726	-13.23004351635746	43.8877987219909	6.925240520835628	33.48948697120451	0	0.02109109184022163
32.9747811	20.78424231105039	0.02990876043531232	57.59147680483409	0.2341366603171506	0.04326292228651554	-1.326684523481465	-22.57117169827992	-1.591976316804377	-3.241458145969817	5.899560354604904	2.451982624139334	1.987972377786656	0	-24.74788768789517	-3.395140484746916	-11.58000132048591	9.793848132074926	-0.4439473045988533	4.250290820099795	0	-21.37711699760957	1.659277491615732	3.206407148933037	0	0	0	0.7863256264930081	-15.17647573831569	33.30344163893529	7.115102040958382	24.89455914312179	0	0.02170370163331437	5.876753909104925	-13.23006084086819	43.88703199334019	6.932636778335964	33.49014253484187	0	0.02170370163331437
33.1496485	19.96691229301478	-0.708680888648772	52.13249043700218	0.2341366603171506	0.04326292228651554	-1.326684523481465	-22.57117169827992	-1.591976316804377	-3.241458145969817	5.899560354604904	2.451982624139334	1.987972377786656	0	-24.74788768789517	-3.395140484746916	-11.58000132048591	9.793848132074926	-0.4439473045988533	4.250290820099795	0	-21.37711699760957	1.659277491615732	3.206407148933037	0	0	0	0.7861357081886516	-15.17647657043719	33.30368891509901	7.111765699232163	24.89392023126998	0	0.02141179112809518	5.876581050234335	-13.23005249288163	43.88740066679745	6.929212420605499	33.48982859249954	0	0.02141179112809518
33.3245423	27.25127002362563	-3.997918619548288	44.78644259696435	0.2341366603171506	0.04326292228651554	-1.326684523481465	-22.57117169827992	-1.591976316804377	-3.241458145969817	5.899560354604904	2.451982624139334	1.987972377786656	0	-24.74788768789517	-3.395140484746916	-11.58000132048591	9.793848132074926	-0.4439473045988533	4.250290820099795	0	-21.37711699760957	1.659277491615732	3.206407148933037	0	0	0	0.7873692103621507	-15.17647116500996	33.30208206478621	7.133647956287604	24.89808100676487	0	0.02331489585165631	5.877703737324222	-13.23010672107333	43.8850044611046	6.95167787942954	33.49187180570578	0	0.02331489585165631
33.4994484	30.21809531841693	-4.68365904749757	39.02850845612862	0.2341366603171506	0.04326292228651554	-1.326684523481465	-22.57117169827992	-1.591976316804377	-3.241458145969817	5.899560354604904	2.451982624139334	1.987972377786656	0	-24.74788768789517	-3.395140484746916	-11.58000132048591	9.793848132074926	-0.4439473045988533	4.250290820099795	0	-21.37711699760957	1.659277491615732	3.206407148933037	0	0	0	0.7876667147245217	-15.17646986281378	33.30169565023778	7.138725047865243	24.8990741670927	0	0.0237677845945339	5.877974554377783	-13.23011978491415	43.88442873572486	6.956883431075775	33.49236051578101	0	0.0237677845945339
33.6743213	34.00592570539859	-6.108484386163858	33.30702853035085	0.2341366603171506	0.04326292228651554	-1.326684523481465	-22.57117169827992	-1.591976316804377	-3.241458145969817	5.899560354604904	2.451982624139334	1.987972377786656	0	-24.74788768789517	-3.395140484746916	-11.58000132048591	9.793848132074926	-0.4439473045988533	4.250290820099795	0	-21.37711699760957	1.659277491615732	3.206407148933037	0	0	0	0.7881417556589279	-15.17646778251175	33.30107788888989	7.14693864944717	24.90066677287924	0	0.02449494913022811	5.878406956488457	-13.23014065485018	43.8835079892592	6.965307637155348	33.49314357211455	0	0.02449494913022811
33.8492657	33.52756310793222	-7.431168523340842	32.82386514403221	0.2341366603171506	0.04326292228651554	-1.326684523481465	-22.57117169827992	-1.591976316804377	-3.241458145969817	5.899560354604904	2.451982624139334	1.987972377786656	0	-24.74788768789517	-3.395140484746916	-11.58000132048591	9.793848132074926	-0.4439473045988533	4.250290820099795	0	-21.37711699760957	1.659277491615732	3.206407148933037	0	0	0	0.7881154359928269	-15.1764678969068	33.30111145086331	7.146607692582844	24.90058499215401	0	0.02445852158194756	5.878382977205804	-13.23013950723113	43.88355769608475	6.964972202620046	33.49310270773083	0	0.02445852158194756
34.000155	22.09204865954685	-3.328838961710479	53.25458526808155	0.2341366603171506	0.04326292228651554	-1.326684523481465	-22.57117169827992	-1.591976316804377	-3.241458145969817	5.899560354604904	2.451982624139334	1.987972377786656	0	-24.74788768789517	-3.395140484746916	-11.58000132048591	9.793848132074926	-0.4439473045988533	4.250290820099795	0	-21.37711699760957	1.659277491615732	3.206407148933037	0	0	0	0.7866340651013094	-15.17647438513628	33.30303868594959	7.120760801047658	24.89561018636059	0	0.02218587328415866	5.877034598794313	-13.23007441621995	43.88643056880289	6.93845198468107	33.49065765835201	0	0.02218587328415866
